<svg width="107" height="108" viewBox="0 0 107 108" fill="none" xmlns="http://www.w3.org/2000/svg">
<g clip-path="url(#clip0_47_333)">
<path d="M15.729 76.042H36.4121V57.6701L60.0805 40.0686L91.2175 76.0527V59.564L54.9231 17.6093H91.271V0.5H15.7718V75.9992H15.729V76.042ZM40.5744 17.5665L50.0332 28.427L36.4121 37.9821V17.5665H40.5744Z" fill="white"/>
<path d="M1.3589 87.9832V94.767H5.2965L5.1253 95.944H0V87.9939C0.0107 87.9832 1.3589 87.9832 1.3589 87.9832Z" fill="white"/>
<path d="M13.161 96.1473C12.5939 96.1473 12.0696 96.0617 11.6202 95.8584C11.1708 95.6658 10.7642 95.3876 10.4539 95.0452C10.1222 94.6921 9.87608 94.2534 9.69418 93.7291C9.51228 93.2048 9.43738 92.627 9.43738 91.9636C9.43738 91.3002 9.52298 90.7224 9.69418 90.1981C9.87608 89.6738 10.1222 89.2458 10.4539 88.8713C10.7856 88.5075 11.1708 88.24 11.6202 88.0581C12.0696 87.8655 12.5939 87.7692 13.1503 87.7692C13.7174 87.7692 14.231 87.8548 14.6911 88.0581C15.1405 88.2507 15.5471 88.5289 15.8574 88.8713C16.1784 89.2244 16.4245 89.6631 16.6064 90.1874C16.7883 90.7117 16.8632 91.2895 16.8632 91.9529C16.8632 92.6163 16.7776 93.2048 16.6171 93.7291C16.4352 94.2534 16.1998 94.6814 15.8895 95.0452C15.5685 95.409 15.1833 95.6765 14.7339 95.8584C14.2524 96.051 13.7495 96.1473 13.161 96.1473ZM13.1396 94.9917C13.91 94.9917 14.4771 94.7349 14.873 94.1892C15.2582 93.6435 15.4615 92.9159 15.4615 91.9743C15.4615 91.5035 15.4187 91.0862 15.3117 90.7117C15.2047 90.3479 15.0656 90.0269 14.873 89.7701C14.6804 89.5133 14.445 89.3207 14.1561 89.1709C13.8565 89.0318 13.5248 88.9569 13.1503 88.9569C12.7758 88.9569 12.4334 89.0318 12.1445 89.1709C11.8449 89.31 11.6095 89.5133 11.4169 89.7701C11.2136 90.0269 11.0745 90.3479 10.9782 90.7117C10.8712 91.0755 10.8391 91.5035 10.8391 91.9743C10.8391 92.9052 11.0317 93.6435 11.4169 94.1892C11.8021 94.7242 12.3799 94.9917 13.1396 94.9917Z" fill="white"/>
<path d="M23.3153 87.9832V92.7554C23.3153 93.5044 23.4544 94.0715 23.7219 94.4353C23.9787 94.7991 24.4495 94.9917 25.0915 94.9917C25.7335 94.9917 26.1829 94.7991 26.4397 94.4353C26.6965 94.0715 26.8249 93.5151 26.8249 92.7554V87.9832H28.1731V92.7554C28.1731 93.3653 28.0982 93.8896 27.9484 94.3283C27.7986 94.7563 27.5846 95.0987 27.3171 95.3769C27.0282 95.6337 26.7179 95.8477 26.3327 95.9654C25.9582 96.0938 25.5302 96.158 25.0594 96.158C24.0322 96.158 23.2618 95.8691 22.7375 95.3448C22.2025 94.7991 21.9457 93.9217 21.9457 92.7447V87.9832H23.3153Z" fill="white"/>
<path d="M33.5552 87.9832H34.9034V95.944H33.5552V87.9832Z" fill="white"/>
<path d="M41.2699 93.5258C41.3341 94.0501 41.516 94.4246 41.837 94.66C42.158 94.8954 42.6181 95.0131 43.2601 95.0131C43.5704 95.0131 43.8165 94.981 44.0305 94.9061C44.2338 94.8419 44.405 94.7563 44.5441 94.6493C44.6725 94.5316 44.7581 94.4139 44.8009 94.2641C44.8437 94.1143 44.8758 93.9431 44.8758 93.7826C44.8758 93.6542 44.8651 93.5365 44.833 93.4081C44.8009 93.2797 44.726 93.1727 44.6297 93.0657C44.5227 92.9587 44.405 92.8731 44.2445 92.7768C44.084 92.7019 43.8807 92.6377 43.6346 92.5842L42.6288 92.3916C42.2222 92.3167 41.8691 92.2311 41.5481 92.1027C41.2271 91.985 40.981 91.8566 40.767 91.664C40.553 91.4821 40.4032 91.2574 40.2855 90.9899C40.1678 90.7331 40.125 90.4121 40.125 90.0376C40.125 89.6631 40.1999 89.3314 40.3497 89.0425C40.4995 88.7536 40.7135 88.5182 40.981 88.3363C41.2378 88.1437 41.5588 88.0046 41.9226 87.9083C42.2864 87.8227 42.693 87.7692 43.1317 87.7692C43.6881 87.7692 44.1375 87.8334 44.5013 87.9618C44.8651 88.0902 45.1754 88.2614 45.4001 88.454C45.6248 88.6573 45.8067 88.8927 45.9244 89.1602C46.0421 89.4277 46.1277 89.7059 46.1598 89.9948L44.8865 90.1981C44.7795 89.7594 44.5869 89.4277 44.3408 89.203C44.0947 88.989 43.6667 88.8713 43.1103 88.8713C42.7893 88.8713 42.5325 88.8927 42.3185 88.9569C42.1045 88.9997 41.944 89.096 41.7942 89.1923C41.6658 89.2993 41.5695 89.4063 41.5053 89.5347C41.4625 89.6631 41.4197 89.7915 41.4197 89.9413C41.4197 90.2944 41.5267 90.5405 41.7193 90.7224C41.9119 90.9043 42.2436 91.0327 42.7144 91.129L43.8165 91.343C44.6511 91.4928 45.2717 91.7603 45.6569 92.1348C46.0421 92.5093 46.2454 93.055 46.2454 93.7505C46.2454 94.0822 46.1812 94.4032 46.0528 94.6814C45.9244 94.981 45.7318 95.2164 45.4857 95.4304C45.2396 95.6444 44.9186 95.8049 44.5441 95.944C44.1696 96.0724 43.7416 96.1366 43.228 96.1366C42.2008 96.1366 41.409 95.9226 40.8312 95.4839C40.2534 95.0452 39.9324 94.3925 39.8789 93.4937H41.302V93.5258H41.2699Z" fill="white"/>
<path d="M57.6516 87.9832H59.0105V91.4821L62.3489 87.9832H63.8362L61.097 90.9578L64.1465 95.9226H62.6164L60.1554 91.8245L59.0212 92.9694V95.9226H57.673V87.9832H57.6516Z" fill="white"/>
<path d="M68.8224 87.9832H74.1189V89.1388H70.1813V91.2681H74.1189V92.4344H70.1813V94.7777H74.1189V95.944H68.8224V87.9832Z" fill="white"/>
<path d="M79.4154 87.9832H84.7119V89.1388H80.7636V91.2681H84.7012V92.4344H80.7636V94.7777H84.7012V95.944H79.394V87.9939H79.4154V87.9832Z" fill="white"/>
<path d="M89.9871 87.9832H91.239L94.8877 93.7291V87.9832H96.2145V95.944H94.9626L91.3032 90.2195V95.944H89.9978V87.9939H89.9871V87.9832Z" fill="white"/>
<path d="M101.703 87.9832H107V89.1388H103.062V91.2681H107V92.4344H103.062V94.7777H107V95.944H101.703V87.9832Z" fill="white"/>
<path d="M2.64294 100.652H3.31704L5.94924 107.318H5.33934L4.53684 105.285H1.39104L0.599242 107.318H0.0107422L2.64294 100.652ZM4.33354 104.771L2.96394 101.283L1.60504 104.771H4.33354Z" fill="white"/>
<path d="M14.017 100.652H16.1142C16.5957 100.652 16.9916 100.695 17.2912 100.812C17.6015 100.919 17.8476 101.048 18.0188 101.23C18.2007 101.39 18.3291 101.594 18.3826 101.808C18.4468 102.022 18.4896 102.246 18.4896 102.482C18.4896 102.91 18.3826 103.263 18.19 103.573C17.9974 103.883 17.6764 104.108 17.2591 104.258L18.7036 107.35H18.0295L16.692 104.386C16.585 104.397 16.478 104.408 16.3603 104.418C16.2426 104.429 16.1356 104.429 16.0072 104.429H14.552V107.35H13.9956V100.652H14.017ZM16.1891 103.905C16.5315 103.905 16.799 103.873 17.0237 103.798C17.2484 103.734 17.4089 103.637 17.5587 103.498C17.6871 103.37 17.7834 103.209 17.8476 103.049C17.9118 102.888 17.9225 102.674 17.9225 102.46C17.9225 102.246 17.9011 102.054 17.8369 101.882C17.7941 101.722 17.6871 101.572 17.5373 101.465C17.3982 101.347 17.2056 101.262 16.9809 101.219C16.7562 101.176 16.4459 101.133 16.0928 101.133H14.5948V103.883H16.1998V103.894H16.1891V103.905Z" fill="white"/>
<path d="M32.2605 105.199C32.2284 105.531 32.1321 105.831 32.0144 106.109C31.8967 106.398 31.7041 106.633 31.4901 106.837C31.2761 107.04 31.0086 107.2 30.6983 107.318C30.3773 107.436 30.0242 107.5 29.6069 107.5C29.1682 107.5 28.7723 107.425 28.4299 107.275C28.0768 107.125 27.7558 106.911 27.5097 106.601C27.2636 106.302 27.0603 105.938 26.9105 105.499C26.7714 105.071 26.6965 104.568 26.6965 104.001C26.6965 103.434 26.7714 102.91 26.9319 102.492C27.0817 102.054 27.2957 101.69 27.5632 101.39C27.82 101.091 28.1303 100.866 28.4834 100.716C28.8365 100.566 29.211 100.491 29.6069 100.491C30.0135 100.491 30.3666 100.534 30.6555 100.652C30.9444 100.77 31.2012 100.898 31.4045 101.091C31.6078 101.283 31.7683 101.508 31.8967 101.775C32.0251 102.032 32.1214 102.321 32.207 102.631L31.6613 102.76C31.5971 102.471 31.5115 102.236 31.4152 102.032C31.3189 101.818 31.1798 101.626 31.03 101.476C30.8695 101.326 30.6769 101.219 30.4522 101.133C30.2275 101.059 29.96 101.005 29.6497 101.005C29.2859 101.005 28.9542 101.08 28.6653 101.23C28.3657 101.38 28.1303 101.583 27.9377 101.861C27.7344 102.118 27.5846 102.439 27.4883 102.803C27.3813 103.166 27.3278 103.573 27.3278 104.012C27.3278 104.45 27.3706 104.868 27.4776 105.232C27.5846 105.595 27.7237 105.916 27.927 106.173C28.1303 106.43 28.3657 106.655 28.6546 106.783C28.9542 106.933 29.2859 106.997 29.6604 106.997C30.0242 106.997 30.3345 106.954 30.5699 106.858C30.8053 106.772 31.0193 106.644 31.1691 106.483C31.3189 106.323 31.458 106.13 31.5436 105.906C31.6292 105.681 31.6934 105.456 31.7469 105.189H32.2926V105.21H32.2605V105.199Z" fill="white"/>
<path d="M40.7135 100.652H41.2806V103.605H45.0363V100.652H45.6034V107.318H45.0363V104.14H41.2806V107.318H40.7135V100.652Z" fill="white"/>
<path d="M54.3239 100.652H54.891V107.318H54.3239V100.652Z" fill="white"/>
<path d="M65.3235 101.176H63.0016V100.652H68.1911V101.176H65.8692V107.318H65.3021V101.176H65.3235Z" fill="white"/>
<path d="M76.3124 100.652H80.5068V101.176H76.8795V103.627H80.5068V104.162H76.8795V106.804H80.5068V107.329H76.3124V100.652Z" fill="white"/>
<path d="M94.2456 105.199C94.2135 105.531 94.1172 105.831 93.9995 106.109C93.8818 106.398 93.6892 106.633 93.4752 106.837C93.2612 107.04 92.9937 107.2 92.6834 107.318C92.3624 107.436 92.0093 107.5 91.592 107.5C91.1533 107.5 90.7574 107.425 90.415 107.275C90.0619 107.125 89.7409 106.911 89.4948 106.601C89.2487 106.302 89.0454 105.938 88.8956 105.499C88.7565 105.071 88.6816 104.568 88.6816 104.001C88.6816 103.434 88.7565 102.91 88.917 102.492C89.0668 102.054 89.2808 101.69 89.5483 101.39C89.8158 101.091 90.1154 100.866 90.4685 100.716C90.8216 100.566 91.1961 100.491 91.592 100.491C91.9986 100.491 92.3517 100.534 92.6406 100.652C92.9402 100.759 93.1863 100.898 93.3896 101.091C93.5929 101.283 93.7534 101.508 93.8818 101.775C94.0102 102.032 94.1065 102.321 94.1921 102.631L93.6464 102.76C93.5822 102.471 93.4966 102.236 93.4003 102.032C93.304 101.818 93.1649 101.626 93.0151 101.476C92.8546 101.326 92.662 101.219 92.4373 101.133C92.2126 101.059 91.9451 101.005 91.6348 101.005C91.271 101.005 90.9393 101.08 90.6504 101.23C90.3508 101.38 90.1154 101.583 89.9228 101.861C89.7195 102.118 89.5697 102.439 89.4734 102.803C89.3664 103.166 89.3129 103.573 89.3129 104.012C89.3129 104.45 89.3557 104.868 89.4627 105.232C89.5697 105.595 89.7088 105.916 89.9121 106.173C90.1154 106.43 90.3508 106.655 90.6397 106.783C90.9393 106.933 91.271 106.997 91.6455 106.997C92.0093 106.997 92.3196 106.954 92.555 106.858C92.7904 106.772 93.0044 106.644 93.1542 106.483C93.304 106.323 93.4431 106.13 93.5287 105.906C93.6143 105.681 93.6785 105.456 93.732 105.189H94.2777V105.21H94.2456V105.199Z" fill="white"/>
<path d="M104.111 101.176H101.789V100.652H106.979V101.176H104.657V107.318H104.09L104.111 101.176Z" fill="white"/>
</g>
<defs>
<clipPath id="clip0_47_333">
<rect width="107" height="107" fill="white" transform="translate(0 0.5)"/>
</clipPath>
</defs>
</svg>
